<?xml version="1.0" encoding="UTF-8"?>
<svg id="Layer_1" data-name="Layer 1" xmlns="http://www.w3.org/2000/svg" viewBox="0 0 156.29 201.13">
  <defs>
    <style>
      .cls-1 {
        font-family: MyriadPro-Regular, 'Myriad Pro';
        font-size: 11.05px;
      }

      .cls-2 {
        fill: #fff;
        stroke-miterlimit: 10;
      }

      .cls-2, .cls-3 {
        stroke: #000;
      }

      .cls-3 {
        fill: none;
        stroke-linecap: round;
        stroke-linejoin: round;
        stroke-width: 14px;
      }
    </style>
  </defs>
  <g id="fig0">
    <line class="cls-3" x1="77.94" y1="107" x2="77.94" y2="75"/>
    <line class="cls-3" x1="77.94" y1="75" x2="77.94" y2="43"/>
    <line class="cls-3" x1="77.94" y1="43" x2="77.94" y2="10"/>
    <circle cx="77.94" cy="20" r="20"/>
    <line class="cls-3" x1="77.94" y1="43" x2="40.02" y2="40.54"/>
    <line class="cls-3" x1="77.94" y1="43" x2="115.53" y2="37.45"/>
    <line class="cls-3" x1="40.02" y1="40.54" x2="7" y2="17.96"/>
    <line class="cls-3" x1="115.53" y1="37.45" x2="149.29" y2="15.99"/>
    <line class="cls-3" x1="77.94" y1="107" x2="46.35" y2="145.76"/>
    <line class="cls-3" x1="77.94" y1="107" x2="113.1" y2="142.55"/>
    <line class="cls-3" x1="46.35" y1="145.76" x2="33.7" y2="194.13"/>
    <line class="cls-3" x1="113.1" y1="142.55" x2="116.24" y2="192.45"/>
  </g>
  <path class="cls-2" d="M100.61,7.42c2.02-5.17,9.74-6.98,17.25-4.05,7.51,2.93,11.96,9.49,9.95,14.66-2.02,5.17-9.74,6.98-17.25,4.05-1.1-.43-2.12-.94-3.07-1.51l-5.85-.17,.87-4.15c-2.17-2.82-2.99-6.03-1.9-8.83Z"/>
  <text class="cls-1" transform="translate(104.19 11.34) rotate(29.3) scale(.59 1)"><tspan x="0" y="0">WOOH</tspan></text>
</svg>