<?xml version="1.0" encoding="UTF-8"?>
<svg id="Layer_1" data-name="Layer 1" xmlns="http://www.w3.org/2000/svg" viewBox="0 0 124.61 202.27">
  <defs>
    <style>
      .cls-1 {
        font-family: MyriadPro-Regular, 'Myriad Pro';
        font-size: 9.55px;
      }

      .cls-2 {
        fill: #fff;
        stroke-miterlimit: 10;
      }

      .cls-2, .cls-3 {
        stroke: #000;
      }

      .cls-3 {
        fill: none;
        stroke-linecap: round;
        stroke-linejoin: round;
        stroke-width: 14px;
      }
    </style>
  </defs>
  <g id="fig0">
    <line class="cls-3" x1="59.34" y1="108.14" x2="59.34" y2="76.14"/>
    <line class="cls-3" x1="59.34" y1="76.14" x2="59.34" y2="44.14"/>
    <line class="cls-3" x1="59.34" y1="44.14" x2="59.34" y2="11.14"/>
    <circle cx="59.34" cy="21.14" r="20"/>
    <line class="cls-3" x1="59.34" y1="44.14" x2="23.08" y2="55.51"/>
    <line class="cls-3" x1="59.34" y1="44.14" x2="96.39" y2="52.56"/>
    <line class="cls-3" x1="23.08" y1="55.51" x2="7" y2="92.13"/>
    <line class="cls-3" x1="96.39" y1="52.56" x2="117.61" y2="86.47"/>
    <line class="cls-3" x1="59.34" y1="108.14" x2="27.75" y2="146.9"/>
    <line class="cls-3" x1="59.34" y1="108.14" x2="94.5" y2="143.69"/>
    <line class="cls-3" x1="27.75" y1="146.9" x2="15.1" y2="195.27"/>
    <line class="cls-3" x1="94.5" y1="143.69" x2="97.64" y2="193.59"/>
  </g>
  <path class="cls-2" d="M34.3,2.03c-3.78-3.89-13.99-.1-22.82,8.47C2.67,19.06-1.42,29.16,2.36,33.05c3.78,3.89,13.99,.1,22.82-8.47,1.29-1.25,2.46-2.53,3.54-3.83l7.37-4.48-2.09-3.67c2.08-4.53,2.36-8.47,.31-10.58Z"/>
  <text class="cls-1" transform="translate(7 32.49) rotate(-44.16) scale(1.16 1)"><tspan x="0" y="0">bonkers</tspan></text>
</svg>