<?xml version="1.0" encoding="UTF-8"?>
<svg id="Layer_1" data-name="Layer 1" xmlns="http://www.w3.org/2000/svg" viewBox="0 0 131.72 218.8">
  <defs>
    <style>
      .cls-1 {
        fill: #fff;
        stroke-miterlimit: 10;
      }

      .cls-1, .cls-2 {
        stroke: #000;
      }

      .cls-2 {
        fill: none;
        stroke-linecap: round;
        stroke-linejoin: round;
        stroke-width: 14px;
      }
    </style>
  </defs>
  <g id="fig0">
    <line class="cls-2" x1="55.98" y1="119.41" x2="65.95" y2="89"/>
    <line class="cls-2" x1="65.95" y1="89" x2="65.2" y2="57.01"/>
    <line class="cls-2" x1="65.2" y1="57.01" x2="64.42" y2="24.02"/>
    <circle cx="64.65" cy="34.02" r="20"/>
    <line class="cls-2" x1="65.2" y1="57.01" x2="38.97" y2="84.51"/>
    <line class="cls-2" x1="65.2" y1="57.01" x2="92.69" y2="83.24"/>
    <line class="cls-2" x1="38.97" y1="84.51" x2="7" y2="60.47"/>
    <line class="cls-2" x1="92.69" y1="83.24" x2="124.72" y2="107.21"/>
    <line class="cls-2" x1="55.98" y1="119.41" x2="36.85" y2="165.6"/>
    <line class="cls-2" x1="55.98" y1="119.41" x2="75.12" y2="165.6"/>
    <line class="cls-2" x1="36.85" y1="165.6" x2="17.71" y2="211.8"/>
    <line class="cls-2" x1="75.12" y1="165.6" x2="94.25" y2="211.8"/>
  </g>
  <path class="cls-1" d="M40.43,9.52C37.61,1.61,26.71-1.73,16.08,2.06,5.45,5.85-.88,15.34,1.94,23.25s13.72,11.25,24.35,7.46c1.55-.55,3-1.24,4.35-2.01l8.27,.22-1.21-6.29c3.08-4.06,4.26-8.8,2.73-13.1Z"/>
  <g>
    <path d="M8,12.22l.53-.22,.7,1.69h.01c.03-.18,.11-.36,.24-.51,.12-.15,.29-.28,.49-.36,.39-.16,1.11-.19,1.5,.74l.66,1.61-.53,.22-.64-1.56c-.18-.44-.51-.73-1.01-.53-.34,.14-.52,.48-.51,.79,0,.08,.02,.15,.06,.25l.67,1.64-.53,.22-1.63-3.98Z"/>
    <path d="M14.59,14.17l-.18-.33h-.02c-.08,.29-.31,.61-.73,.78-.59,.24-1.05-.02-1.21-.41-.27-.66,.21-1.27,1.34-1.73l-.02-.06c-.09-.22-.32-.6-.92-.36-.27,.11-.52,.31-.68,.51l-.25-.28c.18-.24,.49-.48,.86-.63,.89-.37,1.34,.11,1.56,.65l.42,1.01c.1,.24,.2,.46,.31,.63l-.48,.2Zm-.65-1.35c-.58,.23-1.2,.59-.98,1.12,.13,.32,.42,.38,.69,.27,.38-.16,.53-.48,.52-.74,0-.06-.01-.12-.03-.17l-.19-.47Z"/>
    <path d="M14.92,10.86l1.2,1.29c.2,.21,.37,.4,.52,.6h.02c-.03-.26-.03-.52-.04-.8l-.06-1.76,.55-.23-.03,3.18-.51,.21-2.22-2.26,.57-.23Z"/>
    <path d="M18.44,11.11c.29,.66,.86,.75,1.39,.53,.38-.16,.58-.31,.75-.47l.24,.32c-.16,.16-.44,.38-.9,.57-.9,.37-1.66,.04-2-.78-.34-.82-.08-1.68,.77-2.02,.95-.39,1.53,.28,1.73,.78,.04,.1,.06,.18,.08,.24l-2.05,.84Zm1.41-.99c-.12-.32-.47-.74-1.06-.5-.54,.22-.58,.78-.48,1.14l1.55-.64Z"/>
    <path d="M11.47,20.14l1.3,1.34c.14,.15,.3,.34,.42,.48h.01c-.01-.19-.04-.42-.04-.65l-.08-1.83,.56-.23v2.26c0,1.09-.06,1.67-.3,2.11-.17,.32-.4,.51-.52,.59l-.3-.36c.12-.09,.26-.24,.37-.43,.1-.17,.2-.43,.22-.73,0-.06,0-.11,0-.13-.01-.03-.04-.06-.09-.11l-2.11-2.06,.58-.24Z"/>
    <path d="M17.25,19.32c.41,1-.16,1.75-.86,2.04-.79,.32-1.62,.04-1.97-.82-.37-.91,.05-1.7,.86-2.03,.84-.34,1.64-.01,1.98,.82Zm-2.3,.98c.24,.59,.8,.89,1.31,.68,.51-.21,.71-.81,.45-1.42-.19-.46-.67-.94-1.3-.68s-.68,.91-.46,1.42Z"/>
    <path d="M20.62,18.69c.12,.28,.22,.52,.33,.73l-.47,.19-.21-.43h-.01c-.05,.28-.24,.69-.76,.91-.46,.19-1.1,.18-1.49-.77l-.65-1.59,.53-.22,.62,1.5c.21,.52,.52,.79,1,.6,.36-.15,.51-.48,.52-.74,0-.08-.02-.18-.05-.27l-.68-1.67,.53-.22,.81,1.97Z"/>
    <path d="M22.8,18.07c.2,.03,.52,.02,.78-.09,.39-.16,.49-.41,.4-.64-.1-.24-.3-.3-.75-.28-.6,.04-.95-.13-1.09-.45-.18-.44,.05-.95,.68-1.21,.29-.12,.59-.15,.79-.13v.41c-.13-.02-.38-.02-.65,.09-.31,.13-.42,.37-.34,.57,.09,.22,.31,.25,.74,.23,.58-.03,.93,.1,1.1,.5,.2,.48-.06,.98-.76,1.26-.32,.13-.64,.18-.9,.15l-.02-.43Z"/>
    <path d="M25.24,16.17c.29,.66,.86,.75,1.39,.53,.38-.16,.58-.31,.75-.47l.23,.32c-.15,.16-.44,.38-.9,.57-.9,.37-1.66,.04-2-.78-.34-.82-.08-1.67,.77-2.02,.95-.39,1.53,.28,1.73,.78,.04,.1,.06,.18,.08,.24l-2.05,.84Zm1.41-.99c-.12-.32-.47-.74-1.06-.5-.54,.22-.58,.78-.48,1.14l1.55-.64Z"/>
    <path d="M28.25,14.94c.29,.66,.86,.75,1.39,.53,.38-.16,.58-.31,.75-.47l.23,.32c-.15,.15-.44,.38-.9,.57-.9,.37-1.66,.04-2-.78s-.08-1.68,.77-2.02c.95-.39,1.53,.28,1.73,.78,.04,.1,.06,.18,.08,.24l-2.05,.84Zm1.41-.99c-.12-.32-.47-.74-1.06-.5-.54,.22-.58,.78-.48,1.14l1.55-.64Z"/>
    <path d="M30.68,13.11c-.12-.28-.21-.51-.33-.72l.47-.19,.21,.44h.01c.04-.32,.27-.71,.75-.91,.4-.17,1.12-.2,1.5,.73l.67,1.62-.53,.22-.64-1.56c-.18-.44-.5-.73-1-.52-.35,.14-.53,.48-.5,.8,0,.07,.02,.16,.06,.24l.67,1.63-.53,.22-.81-1.98Z"/>
    <path d="M14.34,27.67c-.12-.28-.21-.51-.33-.73l.46-.19,.2,.43h.02c.06-.33,.23-.68,.71-.88,.4-.16,.79-.06,1.05,.2h.01c.03-.19,.09-.36,.18-.49,.12-.2,.29-.34,.57-.46,.39-.16,1.05-.16,1.44,.78l.66,1.6-.52,.21-.63-1.54c-.21-.52-.55-.75-.98-.58-.3,.12-.45,.43-.44,.71,0,.08,.02,.17,.06,.26l.69,1.68-.52,.21-.67-1.62c-.18-.43-.51-.66-.92-.5-.33,.14-.47,.48-.46,.76,0,.09,.02,.17,.06,.26l.67,1.64-.52,.21-.81-1.98Z"/>
    <path d="M19.18,24.83l1.3,1.34c.14,.15,.3,.33,.42,.48h.01c-.01-.19-.04-.42-.04-.65l-.08-1.83,.56-.23v2.26c0,1.09-.06,1.67-.31,2.11-.17,.32-.4,.51-.52,.59l-.3-.36c.12-.09,.26-.24,.37-.43,.1-.17,.2-.43,.22-.73,0-.06,0-.11,0-.13-.01-.03-.04-.06-.09-.11l-2.11-2.06,.58-.24Z"/>
    <path d="M24.14,24.25h.01c.03-.13,.09-.29,.13-.42l.47-1.29,.64-.26-.67,1.58,1.94,1.07-.65,.26-1.54-.89-.16,.39,.42,1.02-.52,.22-1.63-3.98,.52-.22,1.03,2.51Z"/>
    <path d="M26.82,23.38c.29,.66,.86,.75,1.39,.53,.38-.16,.58-.31,.75-.47l.24,.32c-.15,.16-.44,.38-.9,.57-.9,.37-1.66,.04-2-.78-.34-.82-.08-1.67,.77-2.02,.95-.39,1.53,.28,1.73,.78,.04,.1,.06,.18,.08,.24l-2.05,.84Zm1.41-.99c-.12-.32-.47-.75-1.06-.5-.54,.22-.58,.78-.49,1.14l1.55-.64Z"/>
    <path d="M29.14,20.74l1.3,1.34c.14,.15,.3,.34,.41,.48h.01c-.01-.19-.04-.42-.05-.65l-.08-1.83,.56-.23v2.26c0,1.09-.06,1.67-.3,2.11-.17,.32-.4,.51-.52,.59l-.3-.36c.12-.09,.26-.24,.37-.43,.1-.17,.2-.43,.22-.73,0-.06,0-.11,0-.14-.01-.03-.04-.06-.09-.11l-2.11-2.06,.58-.24Z"/>
    <path d="M32.58,21.91c.2,.03,.51,.02,.78-.09,.39-.16,.49-.41,.4-.64-.1-.24-.3-.3-.75-.28-.6,.04-.95-.13-1.09-.45-.18-.44,.05-.95,.68-1.21,.29-.12,.59-.15,.79-.13v.41c-.13-.02-.38-.02-.65,.09-.31,.13-.42,.37-.34,.57,.09,.22,.31,.25,.74,.23,.58-.03,.94,.1,1.1,.5,.2,.48-.06,.98-.76,1.26-.32,.13-.65,.18-.9,.15l-.02-.43Z"/>
  </g>
</svg>