<?xml version="1.0" encoding="utf-8"?>
<!-- Generator: Adobe Illustrator 26.5.0, SVG Export Plug-In . SVG Version: 6.00 Build 0)  -->
<svg version="1.1" id="Layer_1" xmlns="http://www.w3.org/2000/svg" xmlns:xlink="http://www.w3.org/1999/xlink" x="0px" y="0px"
	 viewBox="0 0 124.6 201.1" style="enable-background:new 0 0 124.6 201.1;" xml:space="preserve">
<style type="text/css">
	.st0{fill:none;stroke:#000000;stroke-width:14;stroke-linecap:round;stroke-linejoin:round;}
	.st1{fill:#FFFFFF;stroke:#000000;stroke-miterlimit:10;}
	.st2{font-family:'MyriadPro-Regular';}
	.st3{font-size:9.5535px;}
</style>
<g id="fig0">
	<line class="st0" x1="60.6" y1="108.5" x2="60.6" y2="76.5"/>
	<line class="st0" x1="60.6" y1="76.5" x2="60.6" y2="44.5"/>
	<line class="st0" x1="60.6" y1="44.5" x2="60.6" y2="11.5"/>
	<circle cx="60.6" cy="21.5" r="20"/>
	<line class="st0" x1="60.6" y1="44.5" x2="24.3" y2="55.8"/>
	<line class="st0" x1="60.6" y1="44.5" x2="97.7" y2="52.9"/>
	<line class="st0" x1="24.3" y1="55.8" x2="8.3" y2="92.4"/>
	<line class="st0" x1="97.7" y1="52.9" x2="118.9" y2="86.8"/>
	<line class="st0" x1="60.6" y1="108.5" x2="29" y2="147.2"/>
	<line class="st0" x1="60.6" y1="108.5" x2="95.8" y2="144"/>
	<line class="st0" x1="29" y1="147.2" x2="16.4" y2="195.6"/>
	<line class="st0" x1="95.8" y1="144" x2="98.9" y2="193.9"/>
</g>
<path class="st1" d="M35.6,2.3c-3.8-3.9-14-0.1-22.8,8.5C3.9,19.4-0.2,29.5,3.6,33.4c3.8,3.9,14,0.1,22.8-8.5
	c1.3-1.3,2.5-2.5,3.5-3.8l7.4-4.5l-2.1-3.7C37.3,8.4,37.6,4.4,35.6,2.3z"/>
<text transform="matrix(0.8349 -0.8107 0.6967 0.7174 8.2678 32.7958)" class="st2 st3">bonkers</text>
</svg>
